<svg width="24" height="24" xmlns="http://www.w3.org/2000/svg">

 <g>
  <title>Layer 1</title>
  <path d="m8.79694,4.37466c0,0.0625 0,0.125 0,0.49999c0,0.81248 0,1.74996 0,2.43745l0,0.43749l0,0.1875" id="svg_7" stroke="#000" fill="none"/>
  <path d="m15.4843,4.56216c0,0.0625 0,0.125 0,0.49999c0,0.81248 0,1.74996 0,2.43745l0,0.43749l0,0.1875" id="svg_11" stroke="#000" fill="none"/>
  <path d="m4.60953,12.437c0,0 -0.01436,0.06417 0,0.125c0.03211,0.13601 0.20553,0.42926 0.31249,0.68749c0.15127,0.36519 0.31249,0.62499 0.43749,0.87498c0.125,0.25 0.29524,0.45141 0.49999,0.68749c0.23164,0.26709 0.55552,0.44962 0.87498,0.62499c0.36752,0.20175 0.74464,0.38609 1.12498,0.56249c0.43179,0.20026 0.8805,0.35952 1.24997,0.49999c0.4449,0.16915 0.87145,0.32559 1.31247,0.43749c0.55851,0.14171 0.99998,0.25 1.37497,0.31249c0.37499,0.0625 0.68749,0.0625 0.93748,0.0625c0.37499,0 0.74998,-0.0625 1.18748,-0.1875c0.43749,-0.125 0.76343,-0.21004 1.18748,-0.37499c0.39073,-0.15199 0.74302,-0.38712 1.06248,-0.56249c0.36752,-0.20175 0.61058,-0.27443 0.74998,-0.49999c0.1039,-0.16812 0.1875,-0.43749 0.31249,-0.87498c0.125,-0.43749 0.32473,-0.93071 0.56249,-1.37497c0.19783,-0.36965 0.37499,-0.68749 0.43749,-0.81248c0.0625,-0.125 0.125,-0.125 0.1875,-0.1875c0,0 0.01831,-0.01831 0.0625,-0.0625c0.04419,-0.04419 0.125,-0.0625 0.18749,-0.125c0.0625,-0.0625 0.125,-0.125 0.125,-0.125l0.0625,0" id="svg_15" stroke="#000" fill="none"/>
  <polyline stroke-linecap="round" id="svg_16" points="30.29649695008993,17.62438939511776 30.29649695008993,17.686888106167316 " stroke="#000" fill="none"/>
 </g>
</svg>